<svg width="106" height="44" viewBox="0 0 106 44" fill="none" xmlns="http://www.w3.org/2000/svg">
<g clip-path="url(#clip0_7217_627)">
<path d="M105.06 13.3155C104.994 13.2985 104.928 13.2814 104.861 13.2644C104.86 12.9231 104.75 12.5895 104.536 12.3224C104.287 12.0125 103.881 11.8024 103.477 11.7581C103.092 11.7159 102.692 11.8085 102.398 12.0882C102.213 12.2629 102.029 12.428 101.844 12.6026C101.662 12.573 101.482 12.5337 101.29 12.5029C100.85 12.4255 100.42 12.3492 99.9801 12.2718C99.9801 12.2718 99.9801 12.2718 99.9811 12.2621C100.042 11.9764 99.9128 11.6406 99.7327 11.4162C99.544 11.1812 99.2688 11.0243 98.9606 10.9906C98.6524 10.9568 98.3498 11.0504 98.1147 11.239C98.0485 11.3098 97.9823 11.3805 97.916 11.4512C97.8135 11.5862 97.7582 11.736 97.722 11.888C97.7028 11.8859 97.6739 11.8827 97.6546 11.8806C95.2724 11.4735 92.8784 11.0847 90.4941 10.6968C85.4215 9.84892 80.3426 9.05877 75.2648 8.259C75.2551 8.25795 75.2359 8.25584 75.2262 8.25478C74.6869 8.19572 74.1891 8.64799 74.1321 9.16805C74.0688 9.74589 74.4857 10.2106 75.0412 10.3007C78.3372 10.8176 81.6226 11.3431 84.9069 11.8782C86.9466 12.2088 88.997 12.5308 91.0347 12.8807C92.336 13.1012 93.6459 13.3324 94.9472 13.5528C94.8959 13.5765 94.8446 13.6001 94.8018 13.6344C94.1594 13.9831 93.5073 14.3308 92.8659 14.6699C92.5869 14.8147 92.3154 14.9799 92.0385 15.1055C91.5959 15.3202 91.1447 15.5242 90.6925 15.7378C89.4385 16.3315 88.1951 16.9165 86.9411 17.5101C86.4482 17.7388 85.9489 17.9375 85.4399 18.1352L77.7812 21.2338C76.4757 21.7633 75.1316 22.2009 73.8035 22.6695C71.6339 23.4357 69.4557 24.1913 67.2861 24.9575C66.0896 25.382 64.892 25.8161 63.688 26.2203C59.2265 27.5347 54.7639 28.8588 50.2928 30.1721C49.9506 30.2711 49.6084 30.3701 49.2651 30.4787C49.3154 30.4647 49.356 30.4496 49.4063 30.4356C48.7015 30.6411 47.9914 30.807 47.2792 30.9921C46.4567 31.2042 45.6247 31.4152 44.8034 31.6176C43.151 32.0214 41.4826 32.3942 39.8098 32.7178C38.1969 33.0285 36.5721 33.2696 34.9409 33.4808C33.2604 33.6964 31.5767 33.8531 29.8863 33.8921C28.197 33.9215 26.5021 33.8236 24.8147 33.6583C23.1368 33.4941 21.462 33.2132 19.8191 32.8188C18.2832 32.4265 16.7654 31.9581 15.2763 31.4052C13.8151 30.865 12.3836 30.2307 11.0237 29.4775C9.36282 28.5354 7.80971 27.4102 6.42427 26.0889C5.55311 25.2333 4.76743 24.3091 4.10997 23.282C3.80532 22.7711 3.5723 22.229 3.38097 21.6623C3.2465 21.1992 3.16019 20.7414 3.11451 20.2686C3.12823 20.1434 3.14194 20.0182 3.15565 19.893C3.21843 19.6757 3.27158 19.4574 3.34294 19.2508C3.44516 18.9404 3.32587 18.6057 3.00898 18.4735C2.71992 18.3541 2.33392 18.497 2.2317 18.8075C2.13159 19.0986 2.039 19.4101 1.97635 19.7151C1.93811 19.8864 1.92123 20.0405 1.92256 20.2063C1.91532 20.3614 1.93696 20.5197 1.94898 20.677C2.01855 21.3766 2.21649 22.061 2.46785 22.7025C2.6956 23.2928 3.01529 23.8443 3.36704 24.3702C3.74241 24.9473 4.18084 25.4826 4.631 25.9997C6.4252 28.0383 8.66382 29.6674 11.0485 30.9421C13.552 32.2884 16.2549 33.2374 18.9886 33.9949C21.8839 34.7895 24.8823 35.1764 27.8686 35.3183C30.9233 35.4579 33.9657 35.1771 36.9832 34.7668C38.4871 34.5612 39.9856 34.316 41.4798 34.0215C42.974 33.7271 44.4541 33.3824 45.9354 33.0281C47.377 32.6792 48.8166 32.3495 50.2453 31.9407C51.2816 31.6449 52.3189 31.3394 53.3551 31.0435C56.1922 30.2334 59.0304 29.4137 61.8579 28.6026C62.5926 28.3907 63.3273 28.1787 64.062 27.9668C64.525 27.8323 64.972 27.6669 65.4275 27.5121C68.0901 26.6049 70.743 25.6967 73.4056 24.7895C74.5594 24.3993 75.7143 23.9995 76.8681 23.6093C77.2423 23.4846 77.6166 23.3599 77.993 23.216C80.4265 22.2642 82.8601 21.3125 85.2926 20.3704C86.0058 20.0879 86.7189 19.8054 87.431 19.5325C87.7465 19.4111 88.0565 19.2501 88.3633 19.1181C89.0305 18.811 89.7062 18.5147 90.3722 18.2173C91.1409 17.8726 91.9203 17.5194 92.689 17.1748C93.0889 16.9944 93.4812 16.7937 93.8736 16.593C94.6262 16.2174 95.3702 15.831 96.1228 15.4554C96.7728 15.127 97.4313 14.8093 98.0663 14.4402C98.202 14.3576 98.3474 14.2761 98.4831 14.1935C98.9519 14.2741 99.411 14.3536 99.8797 14.4342C99.759 14.5574 99.6394 14.671 99.5186 14.7942C98.9258 15.4018 98.334 15.9997 97.7412 16.6073C96.9956 17.3638 96.25 18.1203 95.5044 18.8768C95.2513 19.1415 94.9896 19.3954 94.7364 19.6601C94.5612 19.8358 94.3657 20.0191 94.1991 20.2055C93.1355 21.4632 92.0708 22.7306 91.0168 23.9893C90.7253 24.3375 90.4509 24.7071 90.168 25.0659C89.8936 25.4355 89.6288 25.8061 89.3727 26.1873C89.0364 26.6768 88.7548 27.2015 88.4635 27.7251C88.0037 28.5422 87.5524 29.3699 87.2318 30.2509C86.9506 31.0388 87.3008 31.9348 88.0951 32.246C88.8606 32.554 89.7993 32.1695 90.0902 31.3826C90.3928 30.5776 90.8174 29.8152 91.2313 29.0613C92.0977 27.5579 93.1804 26.2145 94.29 24.8936C95.0749 23.9562 95.8608 23.0092 96.6457 22.0718C97.6551 21.0421 98.6538 20.0209 99.6536 18.9901C100.246 18.3825 100.839 17.775 101.432 17.1674C102.135 16.4452 102.882 15.7668 103.619 15.0873C103.935 15.1414 104.26 15.1965 104.576 15.2506C105.015 15.328 105.459 15.016 105.619 14.6241C105.715 14.3715 105.716 14.089 105.607 13.8431C105.514 13.6282 105.296 13.39 105.06 13.3155Z" fill="white"/>
</g>
<defs>
<clipPath id="clip0_7217_627">
<rect width="102.511" height="32.1649" fill="white" transform="translate(4.08594 0.464844) rotate(6.25002)"/>
</clipPath>
</defs>
</svg>
