<svg width="99" height="49" viewBox="0 0 99 49" fill="none" xmlns="http://www.w3.org/2000/svg">
<path d="M98.3271 37.4296C98.2733 37.3873 98.2194 37.345 98.1655 37.3027C98.3015 36.9897 98.3355 36.6402 98.2468 36.3093C98.144 35.9255 97.8572 35.5697 97.5048 35.3663C97.1692 35.1725 96.7657 35.0962 96.3842 35.2339C96.1447 35.3194 95.91 35.3964 95.6705 35.4819C95.5159 35.3815 95.3662 35.2726 95.2032 35.1674C94.8318 34.9194 94.4688 34.6762 94.0974 34.4282C94.0974 34.4282 94.0974 34.4282 94.1022 34.4198C94.2727 34.1826 94.2899 33.8234 94.2154 33.5455C94.1374 33.2543 93.9487 32.9999 93.6802 32.8449C93.4117 32.6899 93.097 32.6537 92.8059 32.7317C92.7168 32.7697 92.6277 32.8078 92.5386 32.8459C92.3904 32.9281 92.2794 33.043 92.1851 33.1675C92.1683 33.1579 92.1431 33.1433 92.1263 33.1336C90.1098 31.8016 88.0752 30.4815 86.049 29.1662C81.7475 26.3472 77.417 23.5784 73.0913 20.8013C73.0829 20.7964 73.0661 20.7867 73.0577 20.7819C72.5878 20.5106 71.95 20.7241 71.6884 21.1772C71.3978 21.6806 71.5922 22.2739 72.0643 22.58C74.873 24.3806 77.6685 26.1848 80.4592 27.9973C82.193 29.1214 83.9401 30.242 85.6643 31.3828C86.7666 32.1088 87.8724 32.8479 88.9748 33.5738C88.9183 33.5748 88.8618 33.5757 88.8089 33.5899C88.0804 33.6504 87.3435 33.706 86.6198 33.758C86.3061 33.7783 85.9911 33.8201 85.687 33.8236C85.1955 33.8418 84.7003 33.8468 84.2004 33.8602C82.8135 33.8985 81.4398 33.9332 80.0529 33.9715C79.5097 33.9823 78.9726 33.9631 78.4271 33.939L70.169 33.6908C68.7608 33.6497 67.3543 33.5088 65.95 33.4028C63.6555 33.2304 61.3575 33.0447 59.0631 32.8722C57.7969 32.7789 56.5259 32.6939 55.2611 32.5789C50.648 31.9852 46.0301 31.3998 41.4087 30.8012C41.0556 30.754 40.7025 30.7068 40.3446 30.6679C40.3962 30.6754 40.4395 30.678 40.4911 30.6854C39.7633 30.5896 39.0465 30.4555 38.32 30.3381C37.4819 30.2009 36.6353 30.059 35.802 29.9135C34.1269 29.6176 32.4497 29.2869 30.7882 28.9094C29.1868 28.5441 27.6025 28.1105 26.0243 27.6468C24.3994 27.1673 22.7951 26.6326 21.2322 25.9876C19.6741 25.3341 18.1622 24.5619 16.6842 23.731C15.2146 22.9049 13.7948 21.9733 12.4499 20.9506C11.202 19.9729 10.0014 18.9329 8.8611 17.8271C7.74115 16.7442 6.68641 15.5871 5.74499 14.35C4.6042 12.8187 3.6358 11.1633 2.89982 9.39596C2.44703 8.26196 2.10011 7.09958 1.91201 5.89465C1.83893 5.3043 1.84396 4.7143 1.89708 4.1185C1.9605 3.6405 2.06586 3.18674 2.21448 2.73557C2.27745 2.62649 2.34042 2.51742 2.4034 2.40835C2.54837 2.23475 2.68496 2.0563 2.83348 1.89594C3.05207 1.65297 3.07768 1.29859 2.84085 1.04998C2.62435 0.824304 2.21348 0.799643 1.9949 1.04261C1.786 1.2688 1.5758 1.51661 1.39562 1.77057C1.29164 1.91191 1.21414 2.04615 1.14857 2.19847C1.07945 2.33756 1.03551 2.49118 0.983174 2.63995C0.765096 3.30832 0.670623 4.0145 0.642322 4.70294C0.613071 5.33489 0.683552 5.9685 0.793737 6.59146C0.904872 7.27091 1.09057 7.93747 1.29435 8.59209C2.11559 11.1806 3.5085 13.5733 5.17779 15.7005C6.92708 17.9411 9.01891 19.8983 11.216 21.6926C13.5461 23.586 16.1348 25.1477 18.811 26.4803C21.5508 27.8384 24.4486 28.8066 27.3757 29.6464C28.8351 30.0639 30.3055 30.443 31.7917 30.7752C33.2779 31.1075 34.7716 31.3882 36.2701 31.6604C37.7302 31.9217 39.1806 32.1997 40.6529 32.4009C41.7206 32.5475 42.7931 32.6856 43.8607 32.8322C46.7838 33.2334 49.7118 33.6261 52.6265 34.0224C53.3843 34.1244 54.1422 34.2263 54.9 34.3282C55.378 34.3916 55.8537 34.4202 56.333 34.4619C59.1354 34.7039 61.9295 34.9411 64.732 35.1831C65.9452 35.2906 67.1633 35.3898 68.3765 35.4973C68.7693 35.5339 69.1621 35.5705 69.5645 35.5904C72.1753 35.6993 74.7861 35.8083 77.392 35.9256C78.1586 35.9543 78.9251 35.9829 79.6868 36.02C80.0244 36.0359 80.373 36.0134 80.7071 36.0161C81.4414 36.0038 82.1792 36.0046 82.9087 36.0007C83.7511 35.9948 84.6067 35.9854 85.4491 35.9795C85.8877 35.9755 86.3277 35.9498 86.7676 35.9241C87.6078 35.8834 88.4444 35.8294 89.2846 35.7887C90.0117 35.7499 90.7425 35.7243 91.4723 35.6422C91.6298 35.6213 91.7957 35.6052 91.9532 35.5843C92.3498 35.8468 92.738 36.1045 93.1346 36.3671C92.9745 36.4312 92.8192 36.487 92.6591 36.5512C91.8718 36.8685 91.0893 37.1775 90.302 37.4948C89.3149 37.887 88.3277 38.2792 87.3406 38.6713C87.0023 38.8116 86.6605 38.9387 86.3222 39.079C86.091 39.1693 85.8383 39.2583 85.6107 39.3618C84.1306 40.0846 82.6457 40.8159 81.174 41.5435C80.7669 41.7448 80.3669 41.9726 79.9634 42.1871C79.5634 42.4148 79.1719 42.6474 78.7838 42.8932C78.2789 43.2058 77.8098 43.5726 77.3323 43.9346C76.5824 44.4973 75.836 45.0732 75.1877 45.7504C74.613 46.3583 74.5726 47.3195 75.1744 47.9242C75.751 48.5144 76.7651 48.5406 77.3482 47.9375C77.9494 47.3225 78.6451 46.7957 79.3275 46.2724C80.7261 45.2451 82.2582 44.4516 83.8057 43.6895C84.9017 43.1476 86.0025 42.5973 87.0984 42.0554C88.4371 41.5194 89.7625 40.9869 91.0928 40.4461C91.8801 40.1288 92.6674 39.8114 93.4547 39.4941C94.3889 39.1161 95.3457 38.7959 96.2941 38.4709C96.5612 38.6475 96.8368 38.829 97.104 39.0056C97.4754 39.2536 98.0071 39.1466 98.3112 38.8524C98.5007 38.6597 98.616 38.4019 98.6148 38.1327C98.6159 37.8984 98.5127 37.5927 98.3271 37.4296Z" fill="#393939"/>
</svg>
