<svg width="21" height="19" viewBox="0 0 21 19" fill="none" xmlns="http://www.w3.org/2000/svg">
<path d="M9.40401 0.612343C9.74775 -0.204115 10.9185 -0.204114 11.2623 0.612346L13.291 5.43123C13.436 5.77543 13.7637 6.01061 14.1398 6.0404L19.4058 6.45748C20.298 6.52814 20.6598 7.62813 19.98 8.2034L15.9679 11.5987C15.6814 11.8412 15.5561 12.2218 15.6437 12.5843L16.8695 17.661C17.0771 18.5211 16.13 19.201 15.3661 18.7401L10.8577 16.0196C10.5356 15.8252 10.1306 15.8252 9.80861 16.0196L5.30012 18.7401C4.53624 19.201 3.58909 18.5211 3.79676 17.661L5.02255 12.5843C5.11011 12.2218 4.98495 11.8412 4.69839 11.5987L0.686192 8.2034C0.00641212 7.62813 0.368198 6.52814 1.26042 6.45748L6.52648 6.0404C6.90263 6.01061 7.23029 5.77543 7.3752 5.43123L9.40401 0.612343Z" fill="#40C2CC"/>
</svg>
